<svg xmlns="http://www.w3.org/2000/svg" viewBox="44 36 168 168">
  <!-- The moth mark (docs/logo.svg), scheme-adaptive. -->
  <style>
    .fg { fill: #0a0a0a; }
    @media (prefers-color-scheme: dark) { .fg { fill: #ededed; } }
  </style>
  <path class="fg" d="M102.724 107C104.359 107 105.83 107.996 106.438 109.514L128.094 163.605L128.254 164.01L128.413 163.605L150.069 109.514C150.677 107.996 152.148 107 153.783 107H196.503C200.576 107 203.466 110.973 202.211 114.849L197.376 129.773C194.861 137.537 188.076 143.14 179.977 144.143L167.38 145.702L181.08 154.237C183.64 155.832 185.087 158.731 184.822 161.735C184.349 167.103 184.773 172.513 186.076 177.741L186.234 178.378C186.804 180.667 185.073 182.884 182.713 182.884H155.281C153.072 182.884 151.281 181.093 151.281 178.884V156.837C151.281 154.171 151.315 151.949 151.383 150.172C151.452 148.394 151.52 146.856 151.588 145.557C151.646 144.983 150.779 144.764 150.57 145.302L136.072 182.701C136.03 182.811 135.924 182.884 135.806 182.884H120.701C120.583 182.884 120.477 182.811 120.435 182.701L105.937 145.302C105.728 144.764 104.861 144.983 104.919 145.557C104.987 146.856 105.055 148.394 105.124 150.172C105.192 151.949 105.226 154.171 105.226 156.837V178.884C105.226 181.093 103.435 182.884 101.226 182.884H73.7936C71.4341 182.884 69.7025 180.667 70.273 178.378L70.4312 177.741C71.7343 172.513 72.1582 167.103 71.6852 161.735C71.4204 158.731 72.8671 155.832 75.4273 154.237L89.1266 145.702L76.5299 144.143C68.4309 143.14 61.6454 137.537 59.1305 129.773L54.2965 114.849C53.0412 110.973 55.9306 107 60.0045 107H102.724Z"/>
  <path class="fg" d="M103.317 58.6336C106.281 57.1518 109.885 58.3528 111.367 61.3163L122.367 83.3163C123.849 86.28 122.648 89.884 119.685 91.3661C116.721 92.8479 113.117 91.647 111.635 88.6835L100.635 66.6835C99.153 63.7197 100.354 60.1157 103.317 58.6336ZM145.635 61.3163C147.117 58.3528 150.721 57.1519 153.685 58.6336C156.648 60.1157 157.849 63.7197 156.367 66.6835L145.367 88.6835C143.885 91.647 140.281 92.8479 137.317 91.3661C134.354 89.884 133.153 86.28 134.635 83.3163L145.635 61.3163Z"/>
</svg>
